
        <svg xmlns="http://www.w3.org/2000/svg" xmlns:xlink="http://www.w3.org/1999/xlink" version="1.1" width="3300" 
        height="1524.8512747713196" viewBox="0 0 3300 1524.8512747713196">
			<rect fill="#ffffff" width="3300" height="1524.8512747713196"/>
			<g transform="scale(15) translate(10, 10)">
				<defs id="SvgjsDefs3606"></defs><g id="SvgjsG3607" featureKey="nameFeature-0" transform="matrix(1.493272742041896,0,0,1.493272742041896,-5.614705495836571,-20.30850843731227)" fill="#903fbc"><path d="M4.08 40 c-0.2 0 -0.32 -0.16 -0.32 -0.36 l0 -25.68 c0 -0.2 0.12 -0.36 0.32 -0.36 l13.6 0 c0.2 0 0.36 0.16 0.36 0.36 l0 4.28 c0 0.2 -0.16 0.36 -0.36 0.36 l-8.64 0 l0 5.44 l6.72 0 c0.2 0 0.32 0.16 0.32 0.36 l0 4.36 c0 0.2 -0.12 0.36 -0.32 0.36 l-6.72 0 l0 5.88 l8.64 0 c0.2 0 0.36 0.16 0.36 0.36 l0 4.28 c0 0.2 -0.16 0.36 -0.36 0.36 l-13.6 0 z M6.08 16.12 l0 21.28 c0 0.24 0.16 0.32 0.32 0.32 l9.2 0 c0.36 0 0.28 -0.48 0 -0.48 l-9 0 l0 -10.44 l7.36 0 c0.24 0 0.24 -0.56 0 -0.56 l-7.36 0 l0 -9.92 l9 0 c0.28 0 0.36 -0.52 0 -0.52 l-9.2 0 c-0.16 0 -0.32 0.12 -0.32 0.32 z M30.429 13.600000000000001 c0.2 0 0.36 0.16 0.36 0.36 l0 21 l8.64 0 c0.2 0 0.36 0.16 0.36 0.36 l0 4.32 c0 0.2 -0.16 0.36 -0.36 0.36 l-13.56 0 c-0.2 0 -0.32 -0.16 -0.32 -0.36 l0 -25.68 c0 -0.2 0.12 -0.36 0.32 -0.36 l4.56 0 z M27.948999999999998 16.04 l0 21.52 c0 0.08 0.08 0.2 0.24 0.2 l9.24 0 c0.32 0 0.32 -0.52 0 -0.52 l-9.04 0 l0 -21.2 c0 -0.28 -0.44 -0.32 -0.44 0 z M46.338 24.16 l9.6 0 c0.12 0 0.28 0.2 0.28 0.28 l0 3.52 c0 0.2 -0.16 0.28 -0.28 0.28 l-9.6 0 c-0.2 0 -0.4 -0.08 -0.4 -0.28 l0 -3.52 c0 -0.2 0.2 -0.28 0.4 -0.28 z M47.978 26.04 c-0.36 0 -0.36 0.48 0 0.48 l6.28 0 c0.32 0 0.32 -0.48 0 -0.48 l-6.28 0 z M67.36699999999999 18.6 l-5.68 0 c-0.2 0 -0.36 -0.16 -0.36 -0.36 l0 -4.28 c0 -0.2 0.16 -0.36 0.36 -0.36 l16.68 0 c0.2 0 0.36 0.16 0.36 0.36 l0 4.28 c0 0.2 -0.16 0.36 -0.36 0.36 l-5.68 0 l0 21.04 c0 0.2 -0.16 0.36 -0.36 0.36 l-4.6 0 c-0.2 0 -0.36 -0.16 -0.36 -0.36 l0 -21.04 z M75.92699999999999 15.8 l-12.08 0 c-0.28 0 -0.28 0.52 0 0.52 l5.92 0 l0 21.2 c0 0.28 0.52 0.28 0.52 0 l0 -21.2 l5.64 0 c0.4 0 0.36 -0.52 0 -0.52 z M100.07600000000001 29.560000000000002 c-0.56 1.16 -1.36 2.04 -2.48 2.56 l3.36 7.4 c0.12 0.24 -0.04 0.48 -0.28 0.48 l-4.92 0 c-0.16 0 -0.24 -0.08 -0.28 -0.2 l-3.12 -6.8 l-2.04 0 l0 6.64 c0 0.2 -0.16 0.36 -0.36 0.36 l-4.6 0 c-0.16 0 -0.28 -0.16 -0.28 -0.36 l0 -25.68 c0 -0.2 0.12 -0.36 0.28 -0.36 l8.32 0 c4.44 0 7.12 2.52 7.12 7.2 l0 5.04 c0 1.4 -0.24 2.72 -0.72 3.72 z M95.556 24.6 l0 -2.6 c0 -2.8 -1.04 -3.08 -4.08 -3.08 l-1.16 0 l0 8.84 l1.16 0 c2.52 0 4 -0.04 4.08 -3.16 z M87.99600000000001 37.56 l0 -6.84 l5.76 0 l3.36 6.92 c0.08 0.2 0.56 0.12 0.44 -0.24 l-3.36 -6.8 c3.12 -0.44 4.2 -2.08 4.2 -5.04 l0 -5 c0 -4.4 -4 -4.76 -5.24 -4.76 l-5.4 0 c-0.08 0 -0.24 0.12 -0.24 0.24 l0 21.52 c0 0.28 0.48 0.28 0.48 0 z M97.916 20.56 l0 5 c0 4.08 -2.6 4.64 -5.12 4.64 l-4.8 0 l0 -13.88 l5.16 0 c4.32 0 4.76 2.92 4.76 4.24 z M108.94500000000001 40 c-0.2 0 -0.32 -0.16 -0.32 -0.36 l0 -25.68 c0 -0.2 0.12 -0.36 0.32 -0.36 l4.56 0 c0.2 0 0.36 0.16 0.36 0.36 l0 25.68 c0 0.2 -0.16 0.36 -0.36 0.36 l-4.56 0 z M111.025 16 l0 21.56 c0 0.36 0.44 0.36 0.44 0 l0 -21.56 c0 -0.28 -0.44 -0.28 -0.44 0 z M130.574 13.600000000000001 c4.44 0 7.12 2.52 7.12 7.2 l0 5.04 c0 4.28 -2.64 7.16 -7.12 7.16 l-3.36 0 l0 6.64 c0 0.2 -0.16 0.36 -0.36 0.36 l-4.6 0 c-0.16 0 -0.28 -0.16 -0.28 -0.36 l0 -25.68 c0 -0.2 0.12 -0.36 0.28 -0.36 l8.32 0 z M132.454 24.64 l0 -2.64 c0 -2.76 -1.28 -3.04 -4.08 -3.04 l-1.16 0 l0 8.8 l1.16 0 c2.2 0 4.08 -0.4 4.08 -3.12 z M135.294 25.560000000000002 l0 -5 c0 -4.4 -3.4 -4.76 -5.24 -4.76 l-5.4 0 c-0.08 0 -0.24 0.12 -0.24 0.24 l0 21.52 c0 0.28 0.48 0.28 0.48 0 l0 -6.8 l4.8 0 c3.52 0 5.6 -1.24 5.6 -5.2 z M124.894 16.32 l5.16 0 c4.44 0 4.72 2.92 4.72 4.24 l0 5 c0 4.08 -2.56 4.64 -5.08 4.64 l-4.8 0 l0 -13.88 z"></path></g><g id="SvgjsG3608" featureKey="sloganFeature-0" transform="matrix(1.6005922601670692,0,0,1.6005922601670692,20,49.38881193068419)" fill="#903fbc"><path d="M2.94 20.04 c-1.62 0 -2.94 -1.32 -2.94 -2.94 l0 -11.36 l1.9 0 l0 11.36 c0 0.58 0.46 1.06 1.04 1.06 s1.04 -0.48 1.04 -1.06 l0 -11.36 l1.9 0 l0 11.36 c0 1.62 -1.32 2.94 -2.94 2.94 z M18.8005 20.12 c-1.52 0 -2.74 -1.24 -2.74 -2.74 l0 -2.18 l1.94 0 l0 2.18 c0 0.44 0.36 0.8 0.8 0.8 s0.78 -0.36 0.78 -0.8 l0 -1.9 l-3.52 -4.86 l0 -2.48 c0 -1.52 1.22 -2.76 2.74 -2.76 c1.5 0 2.72 1.24 2.72 2.76 l0 2.16 l-1.94 0 l0 -2.16 c0 -0.46 -0.34 -0.8 -0.78 -0.8 s-0.8 0.34 -0.8 0.8 l0 1.82 l3.52 4.86 l0 2.56 c0 1.5 -1.22 2.74 -2.72 2.74 z M34.441 20.12 c-1.52 0 -2.74 -1.24 -2.74 -2.74 l0 -2.18 l1.94 0 l0 2.18 c0 0.44 0.36 0.8 0.8 0.8 s0.78 -0.36 0.78 -0.8 l0 -1.9 l-3.52 -4.86 l0 -2.48 c0 -1.52 1.22 -2.76 2.74 -2.76 c1.5 0 2.72 1.24 2.72 2.76 l0 2.16 l-1.94 0 l0 -2.16 c0 -0.46 -0.34 -0.8 -0.78 -0.8 s-0.8 0.34 -0.8 0.8 l0 1.82 l3.52 4.86 l0 2.56 c0 1.5 -1.22 2.74 -2.72 2.74 z M49.2215 18.12 l2.76 0 l0 1.88 l-4.64 0 l0 -14.36 l1.88 0 l0 12.48 z M64.862 20.02 c-1.5 0 -2.7 -1.22 -2.7 -2.7 l0 -8.98 c0 -1.48 1.2 -2.68 2.7 -2.68 c1.48 0 2.68 1.2 2.68 2.68 l0 8.98 c0 1.48 -1.2 2.7 -2.68 2.7 z M64.862 7.5600000000000005 c-0.44 0 -0.78 0.36 -0.78 0.78 l0 8.98 c0 0.44 0.34 0.78 0.78 0.78 c0.42 0 0.78 -0.34 0.78 -0.78 l0 -8.98 c0 -0.42 -0.36 -0.78 -0.78 -0.78 z M82.3625 16.72 l0.08 -11.08 l1.92 0 l-0.12 14.44 l-2.98 0 l-1.62 -11.18 l0 11.18 l-1.92 0 l0 -14.44 l3.1 0 z M97.443 20.16 l-0.44 0 c-1.4 0 -2.52 -1.12 -2.52 -2.52 l0 -9.64 c0 -1.4 1.12 -2.54 2.52 -2.54 l0.44 0 c1.4 0 2.52 1.14 2.52 2.54 l0 1.02 l-1.96 0 l0 -1.02 c0 -0.34 -0.24 -0.58 -0.56 -0.58 l-0.44 0 c-0.3 0 -0.58 0.24 -0.58 0.58 l0 9.64 c0 0.3 0.28 0.58 0.58 0.58 l0.44 0 c0.32 0 0.56 -0.28 0.56 -0.58 l0 -5.2 l-1.12 0 l0 -1.94 l3.08 0 l0 7.14 c0 1.4 -1.12 2.52 -2.52 2.52 z"></path></g>
			</g>
		</svg>
	