<!DOCTYPE svg PUBLIC "-//W3C//DTD SVG 1.1//EN" "http://www.w3.org/Graphics/SVG/1.1/DTD/svg11.dtd">

<!-- Uploaded to: SVG Repo, www.svgrepo.com, Transformed by: SVG Repo Mixer Tools -->
<svg fill="blueviolet" height="64px" width="64px" version="1.1" id="Layer_1" xmlns="http://www.w3.org/2000/svg" xmlns:xlink="http://www.w3.org/1999/xlink" viewBox="0 0 493.545 493.545" xml:space="preserve">

<g id="SVGRepo_bgCarrier" stroke-width="0"/>

<g id="SVGRepo_tracerCarrier" stroke-linecap="round" stroke-linejoin="round"/>

<g id="SVGRepo_iconCarrier"> <g> <g> <path d="M246.772,0c-107.28,0-194.56,86.39-194.56,192.575c0,170.695,181.21,292.165,188.92,297.255l5.64,3.715l5.64-3.715 c7.71-5.09,188.92-126.56,188.92-297.255C441.332,86.39,354.052,0,246.772,0z M246.767,468.79 c-30.5-21.905-174.075-132.68-174.075-276.215c0-94.895,78.09-172.095,174.08-172.095s174.08,77.2,174.08,172.095 C420.853,335.935,277.272,446.855,246.767,468.79z"/> </g> </g> <g> <g> <path d="M356.358,87.045c-29.075-29.72-67.995-46.085-109.585-46.085c-41.59,0-80.51,16.365-109.56,46.06 c-28.4,28.83-44.04,67.02-44.04,107.54c0,40.515,15.64,78.705,44.015,107.51c29.08,29.72,67.995,46.09,109.585,46.09 c41.59,0,80.505-16.37,109.56-46.065c28.4-28.83,44.04-67.02,44.04-107.535C400.372,154.04,384.732,115.85,356.358,87.045z M193.694,72.488c-7.004,9.496-13.149,20.802-18.187,33.666c-5.569-3.561-10.901-7.531-15.949-11.948 C169.89,85.169,181.365,77.863,193.694,72.488z M145.196,108.782c7.42,6.596,15.367,12.376,23.758,17.344 c-4.856,17.655-7.852,37.275-8.599,58.194h-46.208C116.271,156.363,127.047,130.15,145.196,108.782z M114.146,204.8h46.209 c0.747,20.918,3.742,40.535,8.597,58.189c-8.391,4.968-16.339,10.749-23.758,17.344 C127.052,258.979,116.271,232.765,114.146,204.8z M159.559,294.91c5.049-4.416,10.379-8.384,15.948-11.944 c5.037,12.862,11.181,24.167,18.184,33.662C181.367,311.253,169.894,303.948,159.559,294.91z M236.533,325.842 c-17.263-5.669-32.504-25.254-42.715-52.709c13.422-5.835,27.811-9.358,42.715-10.484V325.842z M236.533,242.169 c-16.994,1.113-33.456,4.831-48.826,11.241c-3.781-14.937-6.194-31.352-6.886-48.611h55.713V242.169z M236.533,184.32H180.82 c0.692-17.259,3.106-33.675,6.887-48.613c15.371,6.412,31.831,10.131,48.826,11.244V184.32z M236.533,126.471 c-14.904-1.127-29.293-4.65-42.715-10.485c10.211-27.454,25.453-47.039,42.715-52.708V126.471z M379.399,184.32H333.19 c-0.747-20.919-3.742-40.539-8.599-58.194c8.391-4.969,16.338-10.749,23.758-17.345 C366.492,130.136,377.274,156.354,379.399,184.32z M333.986,94.206c-5.049,4.416-10.379,8.386-15.949,11.947 C313,93.292,306.856,81.986,299.853,72.491C312.177,77.865,323.651,85.169,333.986,94.206z M257.012,63.278 c17.263,5.669,32.504,25.254,42.715,52.708c-13.423,5.835-27.811,9.358-42.715,10.485V63.278z M257.012,146.951 c16.994-1.112,33.455-4.832,48.826-11.244c3.781,14.938,6.195,31.354,6.887,48.613h-55.713V146.951z M257.012,204.8h55.713 c-0.692,17.258-3.105,33.674-6.886,48.611c-15.371-6.41-31.832-10.129-48.826-11.241V204.8z M257.012,325.842v-63.193 c14.904,1.126,29.292,4.649,42.715,10.484C289.517,300.589,274.276,320.174,257.012,325.842z M299.851,316.631 c7.004-9.496,13.149-20.803,18.187-33.666c5.569,3.56,10.9,7.529,15.949,11.945C323.656,303.949,312.18,311.256,299.851,316.631z M348.349,280.333c-7.419-6.596-15.366-12.376-23.757-17.344c4.855-17.654,7.851-37.272,8.597-58.189h46.208 C377.274,232.756,366.498,258.966,348.349,280.333z"/> </g> </g> </g>

</svg>